<?xml version="1.0" encoding="utf-8"?>
<!-- Generator: Adobe Illustrator 19.0.0, SVG Export Plug-In . SVG Version: 6.00 Build 0)  -->
<svg version="1.1" id="layer" xmlns="http://www.w3.org/2000/svg" xmlns:xlink="http://www.w3.org/1999/xlink" x="0px" y="0px"
	 viewBox="-153 -46 652 652" style="enable-background:new -153 -46 652 652;" xml:space="preserve">
<style type="text/css">
	.st0{fill-rule:evenodd;clip-rule:evenodd;fill:#DD5A2B;}
</style>
<path class="st0" d="M302.2,213.8c0,0,12.2-8.3,19.4-8.3c7.3,0,6.2,1.3,6.2,8.5c0,77.5-14,113.7-64.2,113.7
	c-21.8,0-42.2-16.3-42.2-36.2c0-7.8,1.3-23.3,1.3-31c0-74.9-1.2-90.8-1.2-112.7c0-10.6,8.8-20.1,19.5-20.1
	c10.6,0,18.5,8.5,18.5,19.1c0,22-2.4,53.9-3.1,136.6c-0.1,6.9,3.3,11.8,12.3,11.8C296.8,295.2,301.1,259.7,302.2,213.8 M56.6,291.5
	c0,23.5,21,36.1,41,36.1c49.1,0,64.3-26.3,64.3-113.2c0-7.2-5.7-12.9-13-12.9c-7.3,0-14.5,5.7-14.5,12.9c0,57.4-5.3,81.2-31,81.2
	c-11.1,0-14.8-10.5-14.8-17.4c0-11.9,0.5-34.3,1.8-68.3c0.4-10.1-6.7-19.7-17.3-19.7s-17.5,9-17.5,19.6
	C55.6,209.8,56.6,282.5,56.6,291.5"/>
<path class="st0" d="M393.2,314.4c0,0-10.5,13.8-37.3,13.2c-35.4-0.9-51.9-29-53.6-57.9c-1.3-21.9-0.7-37.4-0.7-51.6
	c0-10.6,7.1-19.2,17.7-19.2c10.6,0,16.9,8.8,16.9,19.4c0,14.2-0.9,26.7-1,42.2c-0.2,18.7,6.2,35.2,21.8,35.1
	c14.9,0,31.4-6.3,31.8-38.4c0.2-15.5-0.3-24.7-0.3-39c0-10.6,7.4-19.4,18-19.4c10.6,0,18,8.8,18,19.4c0,14.2-1.2,28.3-1.2,50.3
	c0,0-0.7,44.4,0.9,54.2c4.9-1.6,11.9-6.4,19.4-18c4.5-7,13.1-8.5,18.4-5.4c7.3,4.3,7,12.6,4.3,18.6c-7.1,15.7-16.2,25.3-39.4,33.2
	c0.1,26.6-1.8,65.8-51,72.9c-42.1,6.1-61.2-18.4-61.2-39.1c-0.1-32.8,32.7-42.4,80-54.3L393.2,314.4z M397.8,356.8
	c-23.9,5.2-53.9,12.7-53.6,27.4c0.3,13.8,14.6,16.3,26.5,13.9C395.4,393,398.3,378.2,397.8,356.8z M68.2,196.8
	c-7,0-7.5,1.5-12.2,8.8c0,32.1-3.3,67.1-44.6,86.1c27.7-50.3,0.7-102.8-41.7-102.8c-20.4,0-32.6,7.3-40.9,14
	c0-15.5,0.5-43.1,0.5-43.1c0-19.2-6.7-34.5-30.2-34.8c-13.6-0.2-23.7,6-30,20.1c-2.3,5.3-1.4,11,3,13.6c3.7,2.1,9.8,0.6,12.8-3.5
	c2-2.5,3.1-3,4.9-2.9c2.9,0.3,3,4.9,3.1,7.9c0.1,2.3,2.3,29.4,1.1,114.2c0,23.4,18.4,53.4,62.4,53.4c80.6,0,129-38.1,129-121.3
	C85.6,199.5,75.2,196.8,68.2,196.8z M-43.4,295c-16.4,0.3-26.9-6.2-27.6-20.5c-0.3-5.4-0.2-10,0.1-13.4
	c1.6-20.9,14.8-34.4,29.2-37.3c18-3.6,30,4.6,30,28.1C-11.7,267.8-16.1,294.6-43.4,295z M180.4,327.5c50.6,0,68.6-43.9,68.6-115
	c0-7.2-5.7-12.9-13-12.9c-7.3,0-13,5.7-13,12.9c0,54.3-8.2,83.1-36.8,83.1c-12.5,0-17.6-8.5-17.6-16c0-20.7,0.6-46.5,1.3-67.9
	c0,0,14.9,0.1,21.6,0.1c7.3,0,12.8-5.1,12.8-12.3c0-7.2-4.2-13-14.6-12.9c-11.2,0.1-18.7,0.1-19.6,0.1c0-12.2,0.7-23.3,0.7-31.3
	c0-10.6-8.4-19.4-19.1-19.4c-10.6,0-18.9,8.8-18.9,19.4c0,9.3,0,31.8,0,31.8c-8.4,0-13.6,6-13.6,12.4c0,6.5,4.8,11.6,14.7,11.6
	c0,0-0.4,67.2-0.4,76.2C133.7,309.7,150.3,327.5,180.4,327.5 M73,136.1c-10.7,0-19.4,8.6-19.4,19.3c0,10.7,8.7,19.3,19.4,19.3
	c10.7,0,19.4-8.6,19.4-19.3C92.4,144.8,83.8,136.1,73,136.1"/>
</svg>
